<!--?xml version="1.0" encoding="utf-8"?-->
<!-- Generator: Adobe Illustrator 22.1.0, SVG Export Plug-In . SVG Version: 6.00 Build 0)  -->
<svg version="1.1" id="_x30_" xmlns="http://www.w3.org/2000/svg" xmlns:xlink="http://www.w3.org/1999/xlink" x="0px" y="0px" viewBox="0 0 402.165 800" style="width: 252px;" xml:space="preserve">
<style type="text/css">
	.st0{fill:#040000;}
</style>
<g>
	<path class="st0" d="M8.399,765.024c9.844-9.844,25.97-51.323,23.901-125.135c-0.337-12.02,2.069-107.557,4.926-139.184
		c-7.069-44.287-23.9-139.89,14.056-213.71C89.247,213.184,89.247,128.83,88.54,115.479c-0.705-13.367-5.698-45.715,3.473-66.8
		c8.03-18.424,20.427-39.353,21.134-44.977c0.698-5.633,3.515,4.219,4.91,7.734c1.412,3.514,9.114,51.315,14.064,52.021
		c15.05,2.151,18.983,6.322,23.901,2.102c4.926-4.22,5.625-30.929,8.44-38.663c2.808-7.735,2.101-23.194,5.625-18.277
		c3.514,4.919,11.946,22.506,11.24,34.451c-0.698,11.946-2.102,34.443,14.064,44.985c4.993,3.26,16.167,14.056,15.469,22.496
		c-0.706,8.441,8.432,25.305,19.68,35.149c11.249,9.844,18.982,21.791,18.982,21.791s7.028,2.816,4.919,9.147
		c-2.111,6.322-7.735,9.138-14.057,9.836c-2.816,7.029-16.88,16.167-30.937,9.844c-2.11,4.918,0,10.542-10.542,7.029
		c-10.542-3.515-14.763-11.249-18.974-11.249c-4.229,0-6.331,11.954-4.229,22.496c2.118,10.543,16.88,52.72,33.745,66.784
		c16.88,14.057,81.546,50.609,101.933,75.922c4.434,5.501,8.727,11.199,12.685,17.077c13.531,5.493,33.4,15.157,28.046,21.577
		c-3.349,4.024-8.301,5.156-13.333,5.714c5.213,13.318,7.513,27.202,4.943,41.389c-5.624,30.929,0.698,100.528,10.534,120.915
		c9.853,20.378,21.052,50.609,22.464,61.85c1.404,11.247,13.358,108.96,21.084,123.025c7.735,14.064,0.706,34.442-7.028,33.03
		c-7.029,6.338-17.571,7.734-21.084,4.228c-11.249,0.698-19.689-0.706-18.983-6.33c0.705-5.625,0-16.167,4.926-31.635
		c4.918-15.469-6.33-107.557-16.167-115.989c-9.844-8.44-34.409-40.067-35.822-43.573c-1.404-3.523-42.883-95.611-48.499-100.53
		c-5.624-4.926-16.872-9.844-16.872-9.844l-14.057,29.525c0,0-7.734,165.9-7.734,177.855c0,11.946,0.698,75.921,2.808,85.758
		c2.11,9.836,3.514,23.202-7.734,23.202c-11.946,6.322-21.084,2.808-22.497-1.404c-7.734,0.698-19.68,2.11-18.276-4.918
		c1.412-7.045-0.698-7.735,4.22-13.367c4.927-5.615,7.727-27.406,7.727-27.406s-16.865,33.728-30.224,35.14
		c-13.35,1.413-9.844-3.514-9.844-3.514c-5.615,2.102-9.138-0.698-9.138-3.514c-5.623,1.404-4.918-12.653,8.44-21.791
		c13.359-9.138,18.277-41.479,19.681-52.021c1.411-10.542-8.433-66.776-12.653-73.106c-4.212-6.33-24.598-36.561-20.387-87.171
		c-2.11-26.011-7.029-28.827-7.029-28.827l-18.284-5.624c0,0-17.595,45.683-29.558,70.289
		c-11.946,24.607-11.913,95.611-11.207,104.051c0.698,8.432-0.706,22.497-1.404,25.305c-0.698,2.816-10.551,45.699-9.138,52.022
		c1.404,6.33-15.469,25.312-16.873,30.222c-1.412,4.926-11.954,3.522-14.056,2.817c-5.632,4.918-11.954,0-14.771-3.506
		C-0.739,791.733-1.446,774.86,8.399,765.024z"></path>
</g>
</svg>
